<?xml version="1.0" encoding="utf-8"?>
<!-- Generator: Adobe Illustrator 27.7.0, SVG Export Plug-In . SVG Version: 6.00 Build 0)  -->
<svg version="1.1" id="Calque_1" xmlns="http://www.w3.org/2000/svg" xmlns:xlink="http://www.w3.org/1999/xlink" x="0px" y="0px"
	 width="1920px" height="1080px" viewBox="0 0 1920 1080" style="enable-background:new 0 0 1920 1080;" xml:space="preserve">
<style type="text/css">
	.st0{stroke:#00A19A;stroke-width:9.8903;stroke-miterlimit:10;}
	.st1{fill:none;stroke:#00A19A;stroke-width:13.187;stroke-miterlimit:10;}
	.st2{fill:#F39200;stroke:#00A19A;stroke-width:5.6693;stroke-miterlimit:10;}
</style>
<g>
	<g>
		<path class="st0" d="M297.5,420.2c0,43-8.9,76.9-26.6,101.5c-18.3,25.6-44.1,38.5-77.5,38.5c-21.4,0-38-1.6-49.6-4.8l-3.2-132.8
			c-1-34.1-2.9-81.1-5.6-141c17.2-3.7,35.2-5.5,53.9-5.5c33.4,0,59.5,11.7,78.4,35C287.4,336,297.5,372.4,297.5,420.2z M248.7,442.2
			c0-17.5-3.8-30.4-11.3-38.8c-6.3-6.9-14.3-10.1-24-9.5L211.7,506c10.1-0.9,18.4-5.9,24.9-14.8
			C244.7,480.1,248.7,463.8,248.7,442.2z"/>
		<path class="st0" d="M466.3,383.5c0,21.9-4.1,41.4-12.2,58.3c-7.2,14.8-16.3,25.4-27.1,31.8c2.3,5.4,8,16.6,17,33.8
			c4.5,7.9,11.4,18.2,20.7,31.1c-3.7,2-11.9,7.2-24.6,15.4c-8.9,6.1-17.2,12-25.1,17.9c-2.3-4.3-7.4-15.4-15.4-33.2
			c-3.6-9.1-9-24.3-16-18.4h-0.2l-1.2,45.6h-67c-0.9-36.3-2.1-79.2-3.7-138.9c-0.7-35.1-2.3-83.8-4.9-146
			c21.8-3.5,41.7-5.2,59.7-5.2C433,275.6,466.3,311.6,466.3,383.5z M412.3,422.2c0-11.3-3.2-19.4-9.5-24.3
			c-4.7-3.6-10.5-5.1-17.6-4.6l-0.7,61.1c6.6,0,12.4-2.2,17.6-6.6C408.9,442,412.3,433.5,412.3,422.2z"/>
		<path class="st0" d="M618.4,565.7h-64.8l-4.4-23.7c-1.8,1.1-6.4,4.7-13.6,10.9c-4.7,4.5-9.8,10.5-15.5,18l-6.8-21.5
			c-1.3-4.3-3.3-10.3-5.8-18l-6.4,34.3h-34.4c5-29.3,12.9-77.7,23.5-145.1c6.5-45.1,11.9-87.9,16.2-128.3h71.2
			c2.2,18.6,8.2,62,18.1,130.1C601.2,458,608.8,505.8,618.4,565.7z M543.7,496.7c-1.3-6.3-3.7-16.6-7.1-30.8
			c-2.1-7.9-5.2-18.7-9.4-32.5c-1.8,6.9-4.7,18.2-8.6,34c-2.2,9.1-4.7,21.4-7.6,37c2.4,0,7.8-0.7,16.2-2.1
			C532.2,501.2,537.7,499.3,543.7,496.7z"/>
		<path class="st0" d="M769.1,429c-0.8,10.1-2,29.2-3.6,57.4c-0.8,16.8-1.5,36.7-2.3,59.7c-10.6,4.6-26.1,7-46.5,7
			c-30.3,0-54.9-10.2-73.9-30.8c-22.4-24.4-33.5-60.8-33.5-109c0-46.2,9.8-82.4,29.4-108.3c18.4-24.4,42.6-36.6,72.7-36.6
			c11.3,0,23.5,1.3,36.5,3.9l6.5,112.8c-5.2-3-12.7-4.5-22.4-4.5c-12.3,0-23.4,5.7-33.3,17c-11.1,12.8-16.7,29-16.7,48.6
			c0,18.6,4.7,33,14.2,43.1c7.9,8.6,17.1,12.6,27.5,12.2l-1.9-35.9c-0.5-7.4-1.5-19.5-3.2-36.5L769.1,429L769.1,429L769.1,429z"/>
		<g>
			<path d="M945.7,412.2c0,42.1-7,77.6-21,106.7c-14.7,30.4-33.6,45.6-56.6,45.6c-23.7,0-42.8-15.3-57.5-45.9
				c-13.8-28.9-20.7-64.3-20.7-106.4c0-44.9,5.5-83.2,22.5-105.8c15.3-20.3,31-33.6,55.6-36.1c22.5-2.3,40.9,12.1,55.1,36.3
				C938.2,332.2,945.7,367.5,945.7,412.2z M847.1,500.8L847.1,500.8L847.1,500.8L847.1,500.8L847.1,500.8L847.1,500.8L847.1,500.8z"
				/>
			<path d="M945.7,412.2c0,42.1-7,77.6-21,106.7c-14.7,30.4-33.6,45.6-56.6,45.6c-23.7,0-42.8-15.3-57.5-45.9
				c-13.8-28.9-20.7-64.3-20.7-106.4c0-44.9,5.5-83.2,22.5-105.8c15.3-20.3,31-33.6,55.6-36.1c22.5-2.3,40.9,12.1,55.1,36.3
				C938.2,332.2,945.7,367.5,945.7,412.2z M847.1,500.8L847.1,500.8L847.1,500.8L847.1,500.8L847.1,500.8L847.1,500.8L847.1,500.8z"
				/>
			<path class="st1" d="M945.7,412.2c0,42.1-7,77.6-21,106.7c-14.7,30.4-33.6,45.6-56.6,45.6c-23.7,0-42.8-15.3-57.5-45.9
				c-13.8-28.9-20.7-64.3-20.7-106.4c0-44.9,5.5-83.2,22.5-105.8c15.3-20.3,31-33.6,55.6-36.1c22.5-2.3,40.9,12.1,55.1,36.3
				C938.2,332.2,945.7,367.5,945.7,412.2z M847.1,500.8L847.1,500.8L847.1,500.8L847.1,500.8L847.1,500.8L847.1,500.8L847.1,500.8z"
				/>
		</g>
		<path class="st0" d="M1102.9,292.3c-1.1,24-2.7,65.8-4.6,125.5c-1.2,43.9-2.2,94.4-3,151.5c-10.3-12.2-26.1-30.4-47.3-54.6
			c-9.2-9.6-22.8-24-41-43.2l-1.2,94.3h-38.1c-0.6-24.1-2.1-69.5-4.4-136.3c-2-54.1-4-99.8-6-137.1h59.5l44.1,62.7
			c0-14.4-0.2-25.6-0.5-33.8c-0.2-7.2-0.7-16.8-1.4-28.8L1102.9,292.3L1102.9,292.3L1102.9,292.3z"/>
		<path class="st0" d="M1306.7,292.3l-3.4,111.9c-3.1-0.7-8-1.6-14.8-2.7c-4.2-0.4-11-0.7-20.4-1.1c-0.5,7-1.3,23.9-2.5,50.7
			c-0.9,26-2.3,64.1-4.3,114.4H1204c-0.6-24-1.8-61.6-3.6-113c-0.8-17.8-1.6-35.2-2.5-52.1l-18.7,1.1l-16.9,2.7l-3-112
			C1159.3,292.3,1306.7,292.3,1306.7,292.3z"/>
		<path class="st0" d="M1438.8,292.3l-5.1,112.7c-2.9-0.7-9.2-2-19-3.7c-6.6-0.9-13.9-1.5-21.8-1.8l-1.8,34
			c8.7,0.4,22.9,0.1,42.5-0.9c-0.9,4.4-2.2,12.6-4.1,24.6c-1.1,7.2-2.1,15.6-3,25.1c-2.3-0.8-8-1.9-17.2-3.2
			c-4.3-0.4-10.6-0.5-19-0.4l-1.2,39.7c5.9-0.1,16.8-0.9,32.7-2.3c3-0.4,7.9-1.8,14.8-4.3c-0.6,3.7-2.1,12.5-4.4,26.5
			c-1.1,7.2-2.4,16.4-4,27.4h-106l-3.4-139.5c-0.6-31.9-2.2-76.5-4.6-133.9L1438.8,292.3L1438.8,292.3L1438.8,292.3z"/>
		<path class="st0" d="M1594.4,565.7h-64.8l-4.4-23.7c-1.8,1.1-6.4,4.7-13.6,10.9c-4.7,4.5-9.8,10.5-15.5,18l-6.8-21.5
			c-1.3-4.3-3.3-10.3-5.8-18l-6.4,34.3h-34.3c5.1-29.3,12.9-77.7,23.5-145.1c6.5-45.1,11.9-87.9,16.2-128.3h71.2
			c2.2,18.6,8.2,62,18.1,130.1C1577.2,458,1584.8,505.8,1594.4,565.7z M1519.7,496.7c-1.3-6.3-3.7-16.6-7.1-30.8
			c-2.1-7.9-5.2-18.7-9.4-32.5c-1.8,6.9-4.7,18.2-8.6,34c-2.2,9.1-4.7,21.4-7.6,37c2.4,0,7.8-0.7,16.2-2.1
			C1508.2,501.2,1513.7,499.3,1519.7,496.7z"/>
		<path class="st0" d="M1791,292.3c-1.1,24.9-2.7,70.4-4.9,136.3c-1.1,40.6-1.9,86.3-2.5,137h-42.9l-1.2-83.8l-41.8,90.4l-45.1-89.7
			l-1.2,83.1h-42.6c-0.6-27.2-1.6-73.1-3.2-137.8c-1.1-37.3-3.1-82.5-6-135.6h67.9c2.4,8.7,6.4,22.7,12.2,42
			c4.4,13.8,10.5,30,18.1,48.8c3.4-8.1,9.6-24.8,18.7-50c3.2-9.4,7.4-23,12.4-40.8C1728.9,292.3,1791,292.3,1791,292.3z"/>
	</g>
	<polygon class="st2" points="832.7,482.8 839.6,425.2 811.9,384 850.6,376.1 868.1,323.8 885.1,376.5 923.7,385.4 895.5,425.9 
		901.8,483.7 867.4,456 	"/>
</g>
</svg>
